# xmcd
#
# Track frame offsets: 
#        150
#        18440
#        33360
#
# Disc length: 643 seconds
#
# Revision: 3
# Processed by: cddbd v1.5.2PL0 Copyright (c) Steve Scherf et al.
# Submitted via: ExactAudioCopy v0.95a5
#
DISCID=19028103
DTITLE=Chet Atkins and Mark Knopfler - Poor Boy Blues
DYEAR=1990
DGENRE=Country
TTITLE0=Poor Boy Blues
TTITLE1=So Soft, Your Goodbye
TTITLE2=Tahitian Skies
EXTD=YEAR: 1990
EXTT0=
EXTT1=
EXTT2=
PLAYORDER=
